<svg width="64" height="64" viewBox="0 0 64 64" fill="none" xmlns="http://www.w3.org/2000/svg">
<circle cx="32" cy="32" r="32" fill="white"/>
<path fill-rule="evenodd" clip-rule="evenodd" d="M29.6291 5.10266C28.2563 5.22209 26.9404 5.96919 26.5722 7.2971V7.2971C25.5935 10.8272 21.5586 12.4984 18.3705 10.6944V10.6944C17.1729 10.0167 15.7161 10.4176 14.6617 11.3017C13.4459 12.3213 12.3212 13.4459 11.3017 14.6617C10.4176 15.7161 10.0167 17.1729 10.6944 18.3704V18.3704C12.4984 21.5586 10.8272 25.5935 7.2971 26.5722V26.5722C5.96919 26.9404 5.22209 28.2563 5.10266 29.6291C5.03469 30.4104 5 31.2011 5 32C5 32.7989 5.03469 33.5896 5.10266 34.3708C5.22209 35.7437 5.96919 37.0596 7.2971 37.4278V37.4278C10.8272 38.4065 12.4984 42.4414 10.6944 45.6295V45.6295C10.0167 46.8271 10.4176 48.2839 11.3017 49.3383C12.3212 50.5541 13.4459 51.6787 14.6617 52.6983C15.7161 53.5824 17.1729 53.9833 18.3704 53.3056V53.3056C21.5586 51.5016 25.5935 53.1728 26.5722 56.7029V56.7029C26.9404 58.0308 28.2563 58.7779 29.6292 58.8973C30.4104 58.9653 31.2011 59 32 59C32.7989 59 33.5896 58.9653 34.3708 58.8973C35.7437 58.7779 37.0596 58.0308 37.4278 56.7029V56.7029C38.4065 53.1728 42.4414 51.5016 45.6295 53.3056V53.3056C46.8271 53.9833 48.2839 53.5824 49.3383 52.6983C50.5541 51.6787 51.6787 50.5541 52.6983 49.3383C53.5824 48.2839 53.9833 46.8271 53.3056 45.6295V45.6295C51.5016 42.4414 53.1728 38.4065 56.7029 37.4278V37.4278C58.0308 37.0596 58.7779 35.7437 58.8973 34.3708C58.9653 33.5896 59 32.7989 59 32C59 31.2011 58.9653 30.4104 58.8973 29.6292C58.7779 28.2563 58.0308 26.9404 56.7029 26.5722V26.5722C53.1728 25.5935 51.5016 21.5586 53.3056 18.3705V18.3705C53.9833 17.1729 53.5824 15.7161 52.6983 14.6617C51.6787 13.4459 50.5541 12.3212 49.3383 11.3017C48.2839 10.4176 46.8271 10.0167 45.6295 10.6944V10.6944C42.4414 12.4984 38.4065 10.8272 37.4278 7.2971V7.2971C37.0596 5.96919 35.7437 5.22209 34.3708 5.10266C33.5896 5.03469 32.7989 5 32 5C31.2011 5 30.4104 5.03469 29.6291 5.10266Z" fill="url(#paint0_linear_135_27)"/>
<circle cx="25.9913" cy="21.6715" r="4.29198" transform="rotate(30.3046 25.9913 21.6715)" fill="white"/>
<circle cx="39.0889" cy="42.2733" r="4.29198" transform="rotate(30.3046 39.0889 42.2733)" fill="white"/>
<line x1="37.2307" y1="23.8893" x2="28.1303" y2="39.46" stroke="white" stroke-width="6" stroke-linecap="round"/>
<defs>
<linearGradient id="paint0_linear_135_27" x1="32" y1="5" x2="32" y2="59" gradientUnits="userSpaceOnUse">
<stop stop-color="#F59300"/>
<stop offset="1" stop-color="#F59300" stop-opacity="0.26"/>
</linearGradient>
</defs>
</svg>
